<?xml version="1.0" encoding="UTF-8"?>
<svg xmlns="http://www.w3.org/2000/svg" xmlns:xlink="http://www.w3.org/1999/xlink" viewBox="0 0 48 48" width="48px" height="48px">
<g id="surface192484476">
<path style=" stroke:none;fill-rule:nonzero;fill:rgb(68.627453%,28.235295%,100%);fill-opacity:1;" d="M 47.25 40.792969 C 47.25 44.359375 44.359375 47.25 40.792969 47.25 L 7.207031 47.25 C 3.640625 47.25 0.75 44.359375 0.75 40.792969 L 0.75 7.207031 C 0.75 3.640625 3.640625 0.75 7.207031 0.75 L 40.792969 0.75 C 44.359375 0.75 47.25 3.640625 47.25 7.207031 Z M 47.25 40.792969 "/>
<path style=" stroke:none;fill-rule:nonzero;fill:rgb(100%,100%,100%);fill-opacity:1;" d="M 8.5 17.542969 L 14.957031 17.542969 L 14.957031 39.5 L 8.5 39.5 Z M 11.710938 14.957031 L 11.671875 14.957031 C 9.746094 14.957031 8.5 13.523438 8.5 11.726562 C 8.5 9.894531 9.785156 8.5 11.746094 8.5 C 13.710938 8.5 14.921875 9.894531 14.957031 11.726562 C 14.957031 13.519531 13.710938 14.957031 11.710938 14.957031 Z M 39.5 39.5 L 33.042969 39.5 L 33.042969 27.746094 C 33.042969 24.90625 31.460938 22.96875 28.917969 22.96875 C 26.980469 22.96875 25.929688 24.277344 25.421875 25.542969 C 25.234375 25.992188 25.292969 27.242188 25.292969 27.875 L 25.292969 39.5 L 18.832031 39.5 L 18.832031 17.542969 L 25.292969 17.542969 L 25.292969 20.921875 C 26.222656 19.480469 27.679688 17.542969 31.410156 17.542969 C 36.035156 17.542969 39.5 20.449219 39.5 26.9375 Z M 39.5 39.5 "/>
</g>
</svg>
