<svg xmlns="http://www.w3.org/2000/svg" enable-background="new 0 0 32 32" viewBox="0 0 32 32"><path fill="#FFF9DD" d="M26,32H6c-3.314,0-6-2.686-6-6V6c0-3.314,2.686-6,6-6h20c3.314,0,6,2.686,6,6v20C32,29.314,29.314,32,26,32z"/><rect width=".889" height="1.81" x="15.111" y="14.643" fill="#FFE777"/><path fill="#FFD200" d="M24,12.833H8v5.429h4.445v0.905H16v-0.905h8V12.833z M12.444,17.357h-0.889v-2.714h-0.889v2.714H8.889v-3.619h3.556V17.357z M16.889,17.357h-1.778v0.905h-1.778v-4.524h3.556V17.357z M23.111,17.357h-0.889v-2.714h-0.889v2.714h-0.889v-2.714h-0.889v2.714h-1.778v-3.619h5.334V17.357z"/></svg>