<svg xmlns="http://www.w3.org/2000/svg" enable-background="new 0 0 32 32" viewBox="0 0 32 32"><path fill="#FFF9DD" d="M26,32H6c-3.314,0-6-2.686-6-6V6c0-3.314,2.686-6,6-6h20c3.314,0,6,2.686,6,6v20C32,29.314,29.314,32,26,32z"/><path fill="#FFD200" d="M16,24c4.418,0,8-3.582,8-8s-3.582-8-8-8s-8,3.582-8,8S11.582,24,16,24z M12.274,12.506c1.033-0.966,2.469-1.707,3.796-2.178c2.23-0.793,4.587-0.325,4.948,1.097l-0.049-0.045c0.35,1.4-0.86,3.071-2.409,3.67c-1.38,0.539-2.531,0.45-3,0.3c-0.541-0.18-0.851-0.53-0.931-0.73c-0.03-0.08-0.08-0.21,0-0.25c0.05-0.031,0.07-0.021,0.209,0.129c0.131,0.141,0.641,0.52,1.621,0.41c2.57-0.289,4.11-2.28,3.621-3.349c-0.34-0.75-2.311-1.091-4.781,0.14c-3.01,1.5-3.18,2.739-3.2,3.209c-0.07,1.29,1.6,1.97,2.5,2.94c0.029,0.02,0.05,0.04,0.07,0.07c0.269-0.11,0.65-0.16,1.25-0.171c1.459-0.019,2.28,0.94,2.25,1.8c-0.03,0.681-0.651,0.961-0.761,0.981c-0.079,0.01-0.13,0.01-0.14-0.05c-0.009-0.041,0.021-0.06,0.121-0.121c0.101-0.06,0.389-0.27,0.449-0.629c0.061-0.36-0.219-1.24-1.62-1.4c-0.5-0.061-0.889-0.021-1.22,0.069c0.241,0.53,0.291,1.61-0.269,2.451c-0.58,0.859-1.66,1.39-2.71,1.099c-0.34-0.089-0.86-0.79-0.41-1.77c0.42-0.931,2.213-1.83,2.457-1.95v-0.004c-0.831-0.715-2.851-1.679-3.135-3.153C10.85,14.653,11.045,13.653,12.274,12.506z"/><path fill="#FFE777" d="M12.535,21.174c0.279,0.161,0.928-0.031,1.393-0.537c0.153-0.167,0.277-0.347,0.37-0.54c0.017-0.037,0.036-0.077,0.052-0.117l0.043-0.12c0.12-0.363,0.133-0.765,0.016-1.195l-0.072,0.041v0.002c0,0-0.833,0.394-1.413,1.006C12.385,20.284,12.235,20.999,12.535,21.174z"/></svg>